<svg width="236" height="137" viewBox="0 0 236 137" fill="none" xmlns="http://www.w3.org/2000/svg">
<g clip-path="url(#clip0_913_22675)">
<rect y="32.7959" width="184.38" height="105.175" rx="8" transform="rotate(-8 0 32.7959)" fill="white"/>
<g opacity="0.26">
<path d="M51.7031 76.0869L174.062 168.291" stroke="#55B5E7"/>
<path d="M25.9121 110.313L148.271 202.517" stroke="#55B5E7"/>
<path d="M77.4961 41.8623L199.855 134.066" stroke="#55B5E7"/>
<path d="M13.0176 127.427L135.376 219.631" stroke="#55B5E7"/>
<path d="M64.5996 58.9746L186.958 151.178" stroke="#55B5E7"/>
<path d="M38.8086 93.2012L161.167 185.405" stroke="#55B5E7"/>
<path d="M90.3906 24.7471L212.749 116.951" stroke="#55B5E7"/>
<path d="M6.57031 135.981L128.929 228.185" stroke="#55B5E7"/>
<path d="M58.1523 67.5293L180.511 159.733" stroke="#55B5E7"/>
<path d="M32.3613 101.757L154.72 193.961" stroke="#55B5E7"/>
<path d="M83.9434 33.3047L206.302 125.509" stroke="#55B5E7"/>
<path d="M19.4648 118.869L141.823 211.073" stroke="#55B5E7"/>
<path d="M71.0469 50.417L193.406 142.621" stroke="#55B5E7"/>
<path d="M45.2559 84.6416L167.615 176.845" stroke="#55B5E7"/>
<path d="M96.8379 16.1895L219.197 108.393" stroke="#55B5E7"/>
<path d="M54.9277 71.8076L177.286 164.011" stroke="#55B5E7"/>
<path d="M29.1367 106.033L151.495 198.237" stroke="#55B5E7"/>
<path d="M80.7207 37.5811L203.079 129.785" stroke="#55B5E7"/>
<path d="M16.2422 123.147L138.601 215.351" stroke="#55B5E7"/>
<path d="M67.8242 54.6953L190.183 146.899" stroke="#55B5E7"/>
<path d="M42.0332 88.9199L164.392 181.124" stroke="#55B5E7"/>
<path d="M93.6152 20.4707L215.974 112.675" stroke="#55B5E7"/>
<path d="M9.79297 131.702L132.152 223.906" stroke="#55B5E7"/>
<path d="M61.375 63.251L183.734 155.455" stroke="#55B5E7"/>
<path d="M35.5859 97.4775L157.945 189.681" stroke="#55B5E7"/>
<path d="M87.168 29.0254L209.527 121.229" stroke="#55B5E7"/>
<path d="M22.6895 114.59L145.048 206.794" stroke="#55B5E7"/>
<path d="M74.2715 46.1377L196.63 138.342" stroke="#55B5E7"/>
<path d="M48.4805 80.3633L170.839 172.567" stroke="#55B5E7"/>
<path d="M100.062 11.9111L222.421 104.115" stroke="#55B5E7"/>
<path d="M53.3164 73.9463L175.675 166.15" stroke="#55B5E7"/>
<path d="M27.5254 108.174L149.884 200.378" stroke="#55B5E7"/>
<path d="M79.1074 39.7188L201.466 131.923" stroke="#55B5E7"/>
<path d="M14.6289 125.286L136.988 217.49" stroke="#55B5E7"/>
<path d="M66.2129 56.8311L188.572 149.035" stroke="#55B5E7"/>
<path d="M40.4199 91.0586L162.779 183.262" stroke="#55B5E7"/>
<path d="M92.0039 22.6064L214.363 114.81" stroke="#55B5E7"/>
<path d="M8.18164 133.843L130.54 226.047" stroke="#55B5E7"/>
<path d="M59.7637 65.3916L182.122 157.595" stroke="#55B5E7"/>
<path d="M33.9727 99.6182L156.331 191.822" stroke="#55B5E7"/>
<path d="M85.5547 31.166L207.913 123.37" stroke="#55B5E7"/>
<path d="M21.0781 116.73L143.437 208.934" stroke="#55B5E7"/>
<path d="M72.6602 48.2783L195.019 140.482" stroke="#55B5E7"/>
<path d="M46.8691 82.5039L169.228 174.708" stroke="#55B5E7"/>
<path d="M98.4512 14.0518L220.81 106.256" stroke="#55B5E7"/>
<path d="M56.541 69.6699L178.9 161.874" stroke="#55B5E7"/>
<path d="M30.75 103.895L153.109 196.098" stroke="#55B5E7"/>
<path d="M82.3301 35.4424L204.689 127.646" stroke="#55B5E7"/>
<path d="M17.8535 121.007L140.212 213.211" stroke="#55B5E7"/>
<path d="M69.4355 52.5547L191.794 144.759" stroke="#55B5E7"/>
<path d="M43.6445 86.7822L166.003 178.986" stroke="#55B5E7"/>
<path d="M95.2266 18.3281L217.585 110.532" stroke="#55B5E7"/>
<path d="M11.4043 129.564L133.763 221.768" stroke="#55B5E7"/>
<path d="M62.9883 61.1123L185.347 153.316" stroke="#55B5E7"/>
<path d="M37.1973 95.3398L159.556 187.544" stroke="#55B5E7"/>
<path d="M88.7793 26.8877L211.138 119.092" stroke="#55B5E7"/>
<path d="M24.3008 112.452L146.659 204.656" stroke="#55B5E7"/>
<path d="M75.8848 44L198.243 136.204" stroke="#55B5E7"/>
<path d="M50.0918 78.2246L172.45 170.428" stroke="#55B5E7"/>
<path d="M101.676 9.77246L224.034 101.976" stroke="#55B5E7"/>
<path d="M78.7832 -89.5312L-13.4207 32.8274" stroke="#8D9099"/>
<path d="M147.236 -37.9502L55.0325 84.4084" stroke="#8D9099"/>
<path d="M113.01 -63.7412L20.8059 58.6174" stroke="#8D9099"/>
<path d="M181.463 -12.1572L89.259 110.201" stroke="#8D9099"/>
<path d="M95.8965 -76.6367L3.69263 45.7219" stroke="#8D9099"/>
<path d="M164.35 -25.0557L72.1458 97.303" stroke="#8D9099"/>
<path d="M130.123 -50.8457L37.9192 71.5129" stroke="#8D9099"/>
<path d="M198.576 0.737305L106.372 123.096" stroke="#8D9099"/>
<path d="M87.3398 -83.084L-4.86402 39.2747" stroke="#8D9099"/>
<path d="M155.793 -31.5L63.5891 90.8586" stroke="#8D9099"/>
<path d="M121.566 -57.293L29.3625 65.0657" stroke="#8D9099"/>
<path d="M190.02 -5.70703L97.8157 116.652" stroke="#8D9099"/>
<path d="M104.453 -70.1885L12.2493 52.1702" stroke="#8D9099"/>
<path d="M172.906 -18.6055L80.7024 103.753" stroke="#8D9099"/>
<path d="M138.68 -44.3984L46.4758 77.9602" stroke="#8D9099"/>
<path d="M207.133 7.18555L114.929 129.544" stroke="#8D9099"/>
<path d="M83.0625 -86.3076L-9.14136 36.051" stroke="#8D9099"/>
<path d="M151.514 -34.7266L59.3098 87.6321" stroke="#8D9099"/>
<path d="M117.289 -60.5176L25.0852 61.8411" stroke="#8D9099"/>
<path d="M185.74 -8.93359L93.5364 113.425" stroke="#8D9099"/>
<path d="M100.176 -73.4121L7.97192 48.9465" stroke="#8D9099"/>
<path d="M168.627 -21.8291L76.4231 100.53" stroke="#8D9099"/>
<path d="M134.402 -47.6221L42.1985 74.7366" stroke="#8D9099"/>
<path d="M202.854 3.96094L110.65 126.32" stroke="#8D9099"/>
<path d="M91.6191 -79.8604L-0.584718 42.4983" stroke="#8D9099"/>
<path d="M160.07 -28.2793L67.8665 94.0793" stroke="#8D9099"/>
<path d="M125.844 -54.0723L33.6399 68.2864" stroke="#8D9099"/>
<path d="M194.297 -2.48633L102.093 119.872" stroke="#8D9099"/>
<path d="M108.732 -66.9648L16.5286 55.3938" stroke="#8D9099"/>
<path d="M177.184 -15.3818L84.9797 106.977" stroke="#8D9099"/>
<path d="M142.957 -41.1748L50.7532 81.1838" stroke="#8D9099"/>
<path d="M211.41 10.4062L119.206 132.765" stroke="#8D9099"/>
<path d="M80.9238 -87.9219L-11.28 34.4368" stroke="#8D9099"/>
<path d="M149.375 -36.3359L57.1711 86.0227" stroke="#8D9099"/>
<path d="M115.148 -62.1289L22.9446 60.2297" stroke="#8D9099"/>
<path d="M183.602 -10.5459L91.3977 111.813" stroke="#8D9099"/>
<path d="M98.0352 -75.0264L5.8313 47.3323" stroke="#8D9099"/>
<path d="M166.488 -23.4434L74.2844 98.9153" stroke="#8D9099"/>
<path d="M132.262 -49.2334L40.0579 73.1252" stroke="#8D9099"/>
<path d="M200.715 2.34961L108.511 124.708" stroke="#8D9099"/>
<path d="M89.4805 -81.4717L-2.72339 40.887" stroke="#8D9099"/>
<path d="M157.932 -29.8906L65.7278 92.468" stroke="#8D9099"/>
<path d="M123.705 -55.6816L31.5012 66.677" stroke="#8D9099"/>
<path d="M192.158 -4.09766L99.9543 118.261" stroke="#8D9099"/>
<path d="M106.592 -68.5771L14.3879 53.7815" stroke="#8D9099"/>
<path d="M175.045 -16.9961L82.8411 105.363" stroke="#8D9099"/>
<path d="M140.818 -42.7861L48.6145 79.5725" stroke="#8D9099"/>
<path d="M209.271 8.79688L117.068 131.156" stroke="#8D9099"/>
<path d="M85.2012 -84.6982L-7.00269 37.6604" stroke="#8D9099"/>
<path d="M153.652 -33.1152L61.4485 89.2434" stroke="#8D9099"/>
<path d="M119.428 -58.9053L27.2239 63.4534" stroke="#8D9099"/>
<path d="M187.881 -7.32422L95.677 115.034" stroke="#8D9099"/>
<path d="M102.314 -71.8008L10.1106 50.5579" stroke="#8D9099"/>
<path d="M170.768 -20.2197L78.5637 102.139" stroke="#8D9099"/>
<path d="M136.541 -46.0098L44.3372 76.3489" stroke="#8D9099"/>
<path d="M204.994 5.57324L112.79 127.932" stroke="#8D9099"/>
<path d="M93.7578 -78.248L1.55395 44.1106" stroke="#8D9099"/>
<path d="M162.211 -26.667L70.0071 95.6916" stroke="#8D9099"/>
<path d="M127.984 -52.4551L35.7805 69.9036" stroke="#8D9099"/>
<path d="M196.436 -0.874023L104.232 121.485" stroke="#8D9099"/>
<path d="M110.871 -65.3506L18.6672 57.008" stroke="#8D9099"/>
<path d="M179.324 -13.7695L87.1204 108.589" stroke="#8D9099"/>
<path d="M145.098 -39.5596L52.8938 82.7991" stroke="#8D9099"/>
<path d="M213.549 12.0205L121.345 134.379" stroke="#8D9099"/>
</g>
<path d="M11.5553 66.516C10.998 62.5509 13.7606 58.8848 17.7257 58.3276L36.5408 55.6833C40.5059 55.126 44.172 57.8886 44.7293 61.8537L47.3736 80.6688C47.9308 84.6339 45.1682 88.3 41.2031 88.8572L22.388 91.5015C18.4229 92.0588 14.7569 89.2962 14.1996 85.3311L11.5553 66.516Z" fill="white" stroke="#53B3E5" stroke-width="1.5"/>
<path d="M27.8288 61.9531C29.3573 61.7382 30.9131 61.8266 32.4075 62.2131C33.9019 62.5995 35.3055 63.2765 36.5382 64.2055C37.7709 65.1344 38.8086 66.297 39.592 67.6269C40.3754 68.9569 40.8891 70.4281 41.1039 71.9566C41.3188 73.4851 41.2304 75.041 40.8439 76.5353C40.4575 78.0297 39.7805 79.4333 38.8515 80.666C37.9226 81.8987 36.76 82.9364 35.4301 83.7198C34.1001 84.5032 32.6289 85.0169 31.1004 85.2318L30.5573 81.3677C31.5784 81.2242 32.5612 80.881 33.4496 80.3576C34.338 79.8343 35.1147 79.1411 35.7352 78.3177C36.3558 77.4942 36.808 76.5566 37.0662 75.5583C37.3243 74.5601 37.3834 73.5207 37.2399 72.4997C37.0964 71.4786 36.7532 70.4958 36.2298 69.6074C35.7065 68.719 35.0133 67.9423 34.1899 67.3218C33.3664 66.7013 32.4288 66.249 31.4305 65.9908C30.4322 65.7327 29.3929 65.6736 28.3719 65.8171L27.8288 61.9531Z" fill="#53B3E5"/>
<path d="M27.8294 61.9532C26.3009 62.168 24.8297 62.6818 23.4997 63.4652C22.1698 64.2486 21.0072 65.2862 20.0783 66.519C19.1493 67.7517 18.4723 69.1553 18.0859 70.6496C17.6994 72.144 17.611 73.6998 17.8259 75.2283C18.0407 76.7568 18.5545 78.2281 19.3379 79.558C20.1213 80.8879 21.1589 82.0506 22.3916 82.9795C23.6244 83.9084 25.028 84.5854 26.5223 84.9719C28.0167 85.3583 29.5725 85.4467 31.101 85.2319L30.558 81.3678C29.5369 81.5113 28.4976 81.4523 27.4993 81.1941C26.5011 80.9359 25.5634 80.4837 24.74 79.8632C23.9165 79.2426 23.2233 78.466 22.7 77.5776C22.1767 76.6891 21.8334 75.7063 21.6899 74.6853C21.5464 73.6642 21.6055 72.6249 21.8636 71.6266C22.1218 70.6284 22.5741 69.6907 23.1946 68.8673C23.8151 68.0438 24.5918 67.3506 25.4802 66.8273C26.3686 66.304 27.3514 65.9608 28.3725 65.8173L27.8294 61.9532Z" fill="#16B102"/>
<rect x="26.5352" y="62.1348" width="3.13433" height="23.5075" transform="rotate(-8 26.5352 62.1348)" fill="white"/>
<path d="M17.2791 43.4488C17.3181 43.726 17.3347 43.9782 17.3289 44.2052L11.7141 44.9943C11.8382 45.5424 12.0934 45.9495 12.4795 46.2157C12.8656 46.4819 13.3083 46.5799 13.8074 46.5097C14.5283 46.4084 14.9977 46.0267 15.2157 45.3646L17.3091 45.0704C17.1912 45.841 16.8518 46.5107 16.2908 47.0797C15.7286 47.6394 14.99 47.9835 14.075 48.1121C13.3356 48.216 12.6474 48.1478 12.0104 47.9074C11.3813 47.6565 10.8582 47.2541 10.4411 46.7001C10.0332 46.1448 9.774 45.4743 9.66359 44.6887C9.55188 43.8939 9.61555 43.1733 9.85461 42.5271C10.0937 41.8809 10.4816 41.3551 11.0184 40.9498C11.5552 40.5445 12.2026 40.2885 12.9605 40.182C13.6906 40.0794 14.3643 40.145 14.9815 40.3787C15.6079 40.6111 16.1192 40.9963 16.5153 41.5345C16.9193 42.062 17.1739 42.7001 17.2791 43.4488ZM15.191 43.1767C15.1116 42.6789 14.8755 42.3069 14.4827 42.0605C14.0886 41.8048 13.6374 41.7127 13.1291 41.7842C12.6485 41.8517 12.2626 42.0567 11.9714 42.3993C11.6882 42.7312 11.546 43.1612 11.5448 43.6892L15.191 43.1767ZM19.8399 37.3066L21.1999 46.9835L19.2589 47.2563L17.8989 37.5794L19.8399 37.3066ZM25.1403 36.5617C26.1569 36.4188 27.0768 36.4922 27.8997 36.7818C28.732 37.0701 29.408 37.5547 29.9278 38.2357C30.4556 38.9061 30.7877 39.7265 30.9241 40.697C31.0605 41.6675 30.9674 42.5476 30.6448 43.3375C30.3302 44.1169 29.8127 44.7599 29.0922 45.2664C28.3809 45.7716 27.5169 46.0957 26.5003 46.2386L23.1175 46.714L21.7575 37.0371L25.1403 36.5617ZM26.1991 44.5985C27.2157 44.4557 27.9624 44.068 28.439 43.4355C28.9156 42.803 29.0831 41.983 28.9415 40.9756C28.8 39.9682 28.4123 39.2215 27.7785 38.7357C27.1434 38.2406 26.3175 38.0645 25.3008 38.2074L23.9283 38.4003L24.8266 44.7914L26.1991 44.5985ZM38.1504 38.72L38.3803 40.356L32.5021 41.1821L32.2722 39.5462L38.1504 38.72ZM45.685 43.5424L42.6188 40.6368L43.0786 43.9087L41.1377 44.1814L39.6958 33.9223L41.6368 33.6495L42.457 39.4861L44.5778 35.8657L47.101 35.5111L44.2599 39.8407L48.2082 43.1877L45.685 43.5424ZM48.1912 39.2457C48.0821 38.4694 48.1378 37.7594 48.3584 37.1157C48.5882 36.4708 48.9438 35.9496 49.4251 35.5521C49.9157 35.1532 50.4891 34.9077 51.1454 34.8155C51.7184 34.735 52.2337 34.7803 52.6914 34.9517C53.1582 35.1217 53.5457 35.3641 53.8539 35.6789L53.7 34.5837L55.6547 34.309L56.7342 41.9895L54.7794 42.2642L54.6216 41.1413C54.4227 41.5368 54.1183 41.8859 53.7084 42.1885C53.3065 42.4806 52.819 42.667 52.246 42.7475C51.599 42.8384 50.9841 42.7552 50.4013 42.4978C49.8277 42.2391 49.3416 41.8315 48.9429 41.2749C48.5522 40.7077 48.3016 40.0314 48.1912 39.2457ZM54.2397 38.424C54.1734 37.9526 54.0245 37.5635 53.7929 37.2568C53.56 36.9408 53.2741 36.7171 52.9351 36.5856C52.5949 36.4449 52.2446 36.3999 51.8841 36.4506C51.5236 36.5012 51.2033 36.6358 50.9229 36.8543C50.6426 37.0728 50.4294 37.3666 50.2834 37.7359C50.1453 38.0946 50.1087 38.505 50.1737 38.9671C50.2386 39.4292 50.3882 39.8229 50.6224 40.1482C50.8646 40.4629 51.1512 40.6912 51.4821 40.8332C51.8224 40.9739 52.1681 41.0195 52.5193 40.9702C52.8798 40.9195 53.2048 40.7843 53.4943 40.5645C53.7826 40.3355 53.9958 40.0416 54.1339 39.6829C54.2706 39.315 54.3059 38.8953 54.2397 38.424ZM59.6589 34.9621C59.8513 34.5203 60.13 34.156 60.4949 33.8691C60.8691 33.5809 61.315 33.4004 61.8326 33.3276L62.119 35.3656L61.606 35.4377C60.996 35.5234 60.554 35.7316 60.2801 36.0623C60.0153 36.3917 59.933 36.9122 60.033 37.6239L60.5708 41.4503L58.6298 41.7231L57.5504 34.0426L59.4913 33.7698L59.6589 34.9621ZM65.6393 34.5316L66.1615 38.247C66.1979 38.5058 66.2846 38.6869 66.4216 38.7901C66.5666 38.8829 66.787 38.9084 67.0827 38.8669L67.9839 38.7402L68.2138 40.3761L66.9938 40.5476C65.3579 40.7775 64.4282 40.0976 64.2048 38.5079L63.6845 34.8063L62.7695 34.9349L62.5455 33.3405L63.4605 33.212L63.1935 31.3126L65.1483 31.0379L65.4153 32.9372L67.1344 32.6956L67.3584 34.29L65.6393 34.5316ZM76.1865 35.1699C76.2255 35.4472 76.2421 35.6993 76.2363 35.9263L70.6215 36.7154C70.7456 37.2635 71.0008 37.6706 71.3869 37.9368C71.7731 38.203 72.2157 38.301 72.7148 38.2308C73.4357 38.1295 73.9051 37.7478 74.1231 37.0857L76.2165 36.7915C76.0986 37.5621 75.7592 38.2318 75.1982 38.8008C74.636 39.3605 73.8974 39.7046 72.9824 39.8332C72.243 39.9371 71.5548 39.8689 70.9178 39.6285C70.2888 39.3776 69.7657 38.9752 69.3485 38.4212C68.9406 37.8659 68.6814 37.1954 68.571 36.4098C68.4593 35.615 68.523 34.8944 68.762 34.2482C69.0011 33.602 69.389 33.0762 69.9258 32.6709C70.4626 32.2656 71.11 32.0096 71.8679 31.9031C72.598 31.8005 73.2717 31.8661 73.8889 32.0998C74.5154 32.3322 75.0266 32.7174 75.4227 33.2556C75.8267 33.7831 76.0813 34.4212 76.1865 35.1699ZM74.0984 34.8978C74.019 34.4001 73.7829 34.028 73.3901 33.7816C72.996 33.5259 72.5448 33.4338 72.0365 33.5053C71.5559 33.5728 71.17 33.7778 70.8788 34.1204C70.5956 34.4523 70.4534 34.8823 70.4522 35.4103L74.0984 34.8978Z" fill="#53B3E5"/>
<rect opacity="0.2" x="62.1836" y="51.3223" width="63" height="4" rx="2" transform="rotate(-8 62.1836 51.3223)" fill="#303030"/>
<rect opacity="0.2" x="68.5859" y="96.875" width="46" height="4" rx="2" transform="rotate(-8 68.5859 96.875)" fill="#303030"/>
<rect opacity="0.2" x="63.0195" y="57.2637" width="106" height="4" rx="2" transform="rotate(-8 63.0195 57.2637)" fill="#303030"/>
<rect opacity="0.2" x="67.75" y="90.9326" width="106" height="4" rx="2" transform="rotate(-8 67.75 90.9326)" fill="#303030"/>
<rect opacity="0.2" x="64.9668" y="71.1279" width="24" height="4" rx="2" transform="rotate(-8 64.9668 71.1279)" fill="#303030"/>
<rect opacity="0.2" x="126.363" y="62.499" width="24" height="4" rx="2" transform="rotate(-8 126.363 62.499)" fill="#303030"/>
<rect opacity="0.2" x="65.8027" y="77.0693" width="44" height="4" rx="2" transform="rotate(-8 65.8027 77.0693)" fill="#303030"/>
<rect opacity="0.2" x="127.199" y="68.4404" width="44" height="4" rx="2" transform="rotate(-8 127.199 68.4404)" fill="#303030"/>
</g>
<rect x="101.756" y="0.564721" width="22.658" height="29" rx="3.5" transform="rotate(8 101.756 0.564721)" fill="#FBFBFB" fill-opacity="0.8"/>
<rect x="101.756" y="0.564721" width="22.658" height="29" rx="3.5" transform="rotate(8 101.756 0.564721)" stroke="#8D9099"/>
<path d="M107.028 15.715L107.833 13.9897C109.037 14.6422 109.902 15.1824 110.428 15.6102C110.492 14.057 110.56 12.992 110.633 12.4153L112.371 12.6595C112.229 13.4941 111.99 14.5307 111.653 15.7694C112.537 15.4449 113.537 15.1711 114.652 14.9481L114.95 16.8284C113.886 17.0412 112.858 17.1384 111.866 17.1199C112.29 17.637 112.865 18.5334 113.59 19.8091L112 20.6861C111.631 19.9524 111.212 18.9656 110.742 17.7258C109.983 18.8361 109.336 19.673 108.8 20.2364L107.538 18.9585C108.635 17.8784 109.41 17.1718 109.865 16.8386C108.864 16.4822 107.918 16.1076 107.028 15.715Z" fill="#8D9099"/>
<rect x="157.131" y="8.34792" width="22.658" height="29" rx="3.5" transform="rotate(8 157.131 8.34792)" fill="#FBFBFB" fill-opacity="0.8"/>
<rect x="157.131" y="8.34792" width="22.658" height="29" rx="3.5" transform="rotate(8 157.131 8.34792)" stroke="#8D9099"/>
<path d="M162.403 23.4982L163.208 21.7729C164.412 22.4254 165.277 22.9656 165.803 23.3934C165.867 21.8402 165.935 20.7752 166.008 20.1985L167.746 20.4428C167.604 21.2773 167.365 22.3139 167.028 23.5526C167.912 23.2281 168.912 22.9543 170.027 22.7313L170.325 24.6116C169.261 24.8244 168.233 24.9216 167.241 24.9031C167.665 25.4202 168.24 26.3166 168.965 27.5923L167.375 28.4693C167.006 27.7356 166.587 26.7488 166.117 25.509C165.358 26.6193 164.711 27.4562 164.175 28.0196L162.913 26.7417C164.01 25.6616 164.785 24.955 165.24 24.6218C164.239 24.2654 163.293 23.8908 162.403 23.4982Z" fill="#8D9099"/>
<rect x="212.506" y="16.1292" width="22.658" height="29" rx="3.5" transform="rotate(8 212.506 16.1292)" fill="#FBFBFB" fill-opacity="0.8"/>
<rect x="212.506" y="16.1292" width="22.658" height="29" rx="3.5" transform="rotate(8 212.506 16.1292)" stroke="#8D9099"/>
<path d="M217.778 31.2794L218.583 29.5541C219.787 30.2066 220.652 30.7468 221.178 31.1747C221.242 29.6214 221.31 28.5564 221.383 27.9798L223.121 28.224C222.979 29.0586 222.74 30.0952 222.403 31.3338C223.287 31.0093 224.287 30.7356 225.402 30.5125L225.7 32.3928C224.636 32.6057 223.608 32.7029 222.616 32.6844C223.04 33.2014 223.615 34.0978 224.34 35.3736L222.75 36.2506C222.381 35.5168 221.962 34.53 221.492 33.2902C220.733 34.4005 220.086 35.2374 219.55 35.8008L218.288 34.5229C219.385 33.4429 220.16 32.7363 220.615 32.4031C219.614 32.0466 218.668 31.6721 217.778 31.2794Z" fill="#8D9099"/>
<rect x="129.441" y="4.45632" width="22.658" height="29" rx="3.5" transform="rotate(8 129.441 4.45632)" fill="#FBFBFB" fill-opacity="0.8"/>
<rect x="129.441" y="4.45632" width="22.658" height="29" rx="3.5" transform="rotate(8 129.441 4.45632)" stroke="#8D9099"/>
<path d="M134.714 19.6066L135.518 17.8813C136.722 18.5338 137.587 19.074 138.114 19.5018C138.177 17.9486 138.246 16.8836 138.318 16.3069L140.056 16.5512C139.915 17.3857 139.675 18.4223 139.338 19.661C140.223 19.3365 141.223 19.0627 142.338 18.8397L142.636 20.72C141.571 20.9328 140.543 21.03 139.552 21.0115C139.976 21.5286 140.551 22.425 141.276 23.7007L139.686 24.5777C139.317 23.844 138.897 22.8572 138.428 21.6174C137.669 22.7277 137.021 23.5646 136.486 24.128L135.223 22.8501C136.32 21.77 137.096 21.0634 137.55 20.7302C136.549 20.3738 135.604 19.9992 134.714 19.6066Z" fill="#8D9099"/>
<rect x="184.816" y="12.2385" width="22.658" height="29" rx="3.5" transform="rotate(8 184.816 12.2385)" fill="#FBFBFB" fill-opacity="0.8"/>
<rect x="184.816" y="12.2385" width="22.658" height="29" rx="3.5" transform="rotate(8 184.816 12.2385)" stroke="#8D9099"/>
<path d="M190.089 27.3888L190.893 25.6635C192.097 26.316 192.962 26.8562 193.489 27.2841C193.552 25.7308 193.621 24.6658 193.693 24.0891L195.431 24.3334C195.29 25.1679 195.05 26.2045 194.713 27.4432C195.598 27.1187 196.598 26.845 197.713 26.6219L198.011 28.5022C196.946 28.7151 195.918 28.8122 194.927 28.7937C195.351 29.3108 195.926 30.2072 196.651 31.4829L195.061 32.36C194.692 31.6262 194.272 30.6394 193.803 29.3996C193.044 30.5099 192.396 31.3468 191.861 31.9102L190.598 30.6323C191.695 29.5523 192.471 28.8456 192.925 28.5124C191.924 28.156 190.979 27.7814 190.089 27.3888Z" fill="#8D9099"/>
<defs>
<clipPath id="clip0_913_22675">
<rect y="32.7959" width="184.38" height="105.175" rx="8" transform="rotate(-8 0 32.7959)" fill="white"/>
</clipPath>
</defs>
</svg>
