<svg width="375" height="484" viewBox="0 0 375 484" fill="none" xmlns="http://www.w3.org/2000/svg">
<path fill-rule="evenodd" clip-rule="evenodd" d="M126.091 484H59.9082C67.9727 474.805 79.8083 469 92.9998 469C106.191 469 118.027 474.805 126.091 484Z" fill="url(#paint0_linear_618_52910)"/>
<ellipse cx="284.5" cy="378.5" rx="39.5" ry="38.5" fill="url(#paint1_linear_618_52910)"/>
<ellipse cx="110" cy="457.5" rx="22" ry="21.5" fill="url(#paint2_linear_618_52910)"/>
<circle cx="275" cy="372" r="63" stroke="#FBFBFB" stroke-width="2"/>
<circle cx="64.5" cy="217.5" r="52.5" stroke="#FBFBFB" stroke-width="4"/>
<circle cx="225" cy="255" r="10" fill="url(#paint3_linear_618_52910)"/>
<circle cx="366" cy="461" r="6" fill="url(#paint4_linear_618_52910)"/>
<circle cx="47" cy="116" r="6" fill="url(#paint5_linear_618_52910)"/>
<path fill-rule="evenodd" clip-rule="evenodd" d="M251.862 484H243.744L235.319 461.212C234.59 459.239 235.598 457.049 237.57 456.32C239.543 455.591 241.733 456.599 242.462 458.571L251.862 484Z" fill="#FBFBFB"/>
<path fill-rule="evenodd" clip-rule="evenodd" d="M198.48 484H190.387C187.561 465.958 181.674 447.857 171.35 432.981C161.431 418.689 147.409 407.347 127.895 401.772C108.319 396.179 82.8938 396.302 50.0941 405.57L47.9189 397.871C81.6985 388.327 108.696 387.967 130.093 394.08C151.554 400.211 167.057 412.764 177.922 428.42C189.299 444.813 195.582 464.574 198.48 484Z" fill="url(#paint6_linear_618_52910)"/>
<circle cx="275" cy="372" r="63" stroke="#FBFBFB" stroke-width="2"/>
<circle cx="64.5" cy="217.5" r="52.5" stroke="#FBFBFB" stroke-width="4"/>
<circle cx="47" cy="116" r="6" fill="url(#paint7_linear_618_52910)"/>
<path fill-rule="evenodd" clip-rule="evenodd" d="M0 115.182C36.1101 97.9378 76.7364 88.5269 92.5 118.5C115.435 162.109 162.088 76.2612 194.379 0H0V115.182Z" fill="url(#paint8_linear_618_52910)"/>
<path fill-rule="evenodd" clip-rule="evenodd" d="M0 59.5749V53.328C9.90319 50.5338 19.8061 48.9816 29.6287 48.688C60.7341 47.7583 90.7034 59.4622 116.941 83.7064C169.182 131.979 177.547 194.913 175.137 220.733C174.29 236.895 178.758 257.726 193.999 269.206C209.058 280.549 235.977 283.713 282.319 261.539L310.585 246.421L313.415 251.712L285.09 266.862L285.031 266.893L284.97 266.922C237.877 289.469 208.163 287.386 190.389 273.998C172.809 260.757 168.241 237.398 169.149 220.354L169.152 220.293L169.158 220.232C171.45 195.901 163.5 134.898 112.869 88.1131C87.6485 64.8087 59.1655 53.8078 29.808 54.6854C19.9764 54.9792 10.0099 56.6067 0 59.5749Z" fill="#FBFBFB"/>
<path fill-rule="evenodd" clip-rule="evenodd" d="M0 429.782V293.218C1.81434 293.073 3.64859 293 5.5 293C43.3315 293 74 323.668 74 361.5C74 399.332 43.3315 430 5.5 430C3.64859 430 1.81434 429.927 0 429.782Z" fill="url(#paint9_linear_618_52910)"/>
<path fill-rule="evenodd" clip-rule="evenodd" d="M0 334.712V239.282C15.2531 220.874 35.0966 207.359 48.1708 200.536C73.265 189.221 108.315 215.692 140.145 281.48C171.975 347.269 132.086 380.938 109.66 376.633C79.8448 371.934 28.9927 358.572 0 334.712Z" fill="url(#paint10_linear_618_52910)"/>
<path fill-rule="evenodd" clip-rule="evenodd" d="M375 48.2002V106.8C362.291 103.12 353 91.3949 353 77.5001C353 63.6053 362.291 51.8806 375 48.2002Z" fill="url(#paint11_linear_618_52910)"/>
<path fill-rule="evenodd" clip-rule="evenodd" d="M375 276.505V294.538C369.778 294.233 364.606 293.701 359.595 292.904C346.01 290.742 332.609 286.476 322.658 278.563C312.231 270.271 306.072 258.304 307.134 242.691C308.172 227.425 306.125 221.611 304.244 219.062C302.415 216.584 299.543 215.309 291.689 212.958C291.417 212.876 291.141 212.794 290.861 212.71C283.673 210.565 274.075 207.701 263.93 200.655C253.332 193.295 242.659 181.782 232.527 162.851C227.931 154.263 226.269 145.6 228.439 137.295C230.583 129.092 236.082 122.719 242.846 117.845C256.043 108.335 276.636 102.657 298.846 99.271C322.391 95.6819 349.396 94.4474 375 94.7944V112.796C350.212 112.45 324.103 113.629 301.559 117.065C279.847 120.375 262.899 125.581 253.37 132.448C248.771 135.762 246.611 138.952 245.855 141.846C245.124 144.64 245.322 148.611 248.397 154.357C257.444 171.26 266.35 180.42 274.198 185.871C281.953 191.257 289.188 193.421 296.426 195.587L296.851 195.714L297.41 195.881C304.141 197.891 312.925 200.514 318.726 208.372C324.636 216.379 326.185 227.856 325.092 243.913C324.45 253.359 327.855 259.698 333.861 264.474C340.342 269.628 350.242 273.189 362.424 275.128C366.499 275.776 370.719 276.226 375 276.505Z" fill="url(#paint12_linear_618_52910)"/>
<rect x="267.281" y="66" width="17.4809" height="77.6918" rx="8.74047" transform="rotate(24.5502 267.281 66)" fill="url(#paint13_linear_618_52910)"/>
<defs>
<linearGradient id="paint0_linear_618_52910" x1="87.5401" y1="502.08" x2="137" y2="513" gradientUnits="userSpaceOnUse">
<stop stop-color="#FBFBFB"/>
<stop offset="1" stop-color="#D1D1D1"/>
</linearGradient>
<linearGradient id="paint1_linear_618_52910" x1="245.263" y1="342.75" x2="325.306" y2="344.186" gradientUnits="userSpaceOnUse">
<stop stop-color="#4347E1"/>
<stop offset="1" stop-color="#4C16AE"/>
</linearGradient>
<linearGradient id="paint2_linear_618_52910" x1="88.1467" y1="437.536" x2="132.728" y2="438.333" gradientUnits="userSpaceOnUse">
<stop stop-color="#4347E1"/>
<stop offset="1" stop-color="#4C16AE"/>
</linearGradient>
<linearGradient id="paint3_linear_618_52910" x1="227.482" y1="253.759" x2="225" y2="265" gradientUnits="userSpaceOnUse">
<stop stop-color="#FBFBFB"/>
<stop offset="1" stop-color="#D1D1D1"/>
</linearGradient>
<linearGradient id="paint4_linear_618_52910" x1="367.489" y1="460.255" x2="366" y2="467" gradientUnits="userSpaceOnUse">
<stop stop-color="#FBFBFB"/>
<stop offset="1" stop-color="#D1D1D1"/>
</linearGradient>
<linearGradient id="paint5_linear_618_52910" x1="48.4891" y1="115.255" x2="47" y2="122" gradientUnits="userSpaceOnUse">
<stop stop-color="#FBFBFB"/>
<stop offset="1" stop-color="#D1D1D1"/>
</linearGradient>
<linearGradient id="paint6_linear_618_52910" x1="48.4208" y1="393.357" x2="200.899" y2="397.627" gradientUnits="userSpaceOnUse">
<stop stop-color="#4347E1"/>
<stop offset="1" stop-color="#4C16AE"/>
</linearGradient>
<linearGradient id="paint7_linear_618_52910" x1="48.4891" y1="115.255" x2="47" y2="122" gradientUnits="userSpaceOnUse">
<stop stop-color="#FBFBFB"/>
<stop offset="1" stop-color="#D1D1D1"/>
</linearGradient>
<linearGradient id="paint8_linear_618_52910" x1="0.647927" y1="4.65338" x2="197.522" y2="9.78849" gradientUnits="userSpaceOnUse">
<stop stop-color="#4347E1"/>
<stop offset="1" stop-color="#4C16AE"/>
</linearGradient>
<linearGradient id="paint9_linear_618_52910" x1="22.5" y1="353" x2="5.5" y2="430" gradientUnits="userSpaceOnUse">
<stop stop-color="#FBFBFB"/>
<stop offset="1" stop-color="#D1D1D1"/>
</linearGradient>
<linearGradient id="paint10_linear_618_52910" x1="0.506665" y1="204.393" x2="154.529" y2="206.68" gradientUnits="userSpaceOnUse">
<stop stop-color="#4347E1"/>
<stop offset="1" stop-color="#4C16AE"/>
</linearGradient>
<linearGradient id="paint11_linear_618_52910" x1="391.069" y1="73.7153" x2="383.5" y2="108" gradientUnits="userSpaceOnUse">
<stop stop-color="#FBFBFB"/>
<stop offset="1" stop-color="#D1D1D1"/>
</linearGradient>
<linearGradient id="paint12_linear_618_52910" x1="227.988" y1="101.874" x2="377.462" y2="103.803" gradientUnits="userSpaceOnUse">
<stop stop-color="#4347E1"/>
<stop offset="1" stop-color="#4C16AE"/>
</linearGradient>
<linearGradient id="paint13_linear_618_52910" x1="276.022" y1="66" x2="276.022" y2="143.692" gradientUnits="userSpaceOnUse">
<stop stop-color="#E3E3E3"/>
<stop offset="0.0001" stop-color="#F2F2F2"/>
<stop offset="1" stop-color="#FBFBFB"/>
</linearGradient>
</defs>
</svg>
